<?xml version="1.0" encoding="UTF-8"?>
<svg id="Layer_1" data-name="Layer 1" xmlns="http://www.w3.org/2000/svg" viewBox="0 0 301 301">
  <defs>
    <style>
      .cls-1 {
        fill: #bd4043;
      }

      .cls-2 {
        fill: #ff4b4b;
      }

      .cls-3 {
        fill: #7d353b;
      }
    </style>
  </defs>
  <path class="cls-2" d="M150.73,169.55l-52.59-27.8L6.85,93.5c-.08-.08-.25-.08-.33-.08-3.33-1.58-6.75,1.75-5.5,5.08l46.52,118.64v.02c.06.12.1.23.15.35,1.91,4.42,6.08,7.16,10.61,8.23.38.08.66.16,1.12.25.46.1,1.1.24,1.65.28.09,0,.18,0,.27.02h.07c.07,0,.13,0,.2.02h.09c.06,0,.12,0,.18,0h.11c.07,0,.13,0,.2,0h0c58.91,6.42,118.35,6.42,177.26,0h0c.71,0,1.4-.03,2.07-.1.22-.03.43-.05.63-.07.03,0,.06,0,.08-.02.14-.02.28-.04.43-.07.21-.03.42-.07.62-.11.42-.09.61-.16,1.17-.35.57-.19,1.5-.53,2.09-.82.59-.28,1-.56,1.49-.86.61-.38,1.19-.78,1.77-1.22.25-.19.43-.32.61-.49l-.1-.06-99.57-52.62Z"/>
  <path class="cls-3" d="M294.77,93.5h-.08l-91.33,48.25,50.77,75.61,46.4-118.86v-.17c1.17-3.5-2.42-6.67-5.76-4.83"/>
  <path class="cls-1" d="M155.6,70.56c-2.33-3.41-7.42-3.41-9.67,0l-47.79,71.19,52.59,27.8,99.67,52.67c.63-.61,1.13-1.21,1.66-1.84.75-.93,1.45-1.92,2.07-3.02l-50.77-75.61-47.76-71.19Z"/>
</svg>